<svg width="1160" height="248" viewBox="0 0 1160 248" fill="none" xmlns="http://www.w3.org/2000/svg">
<rect x="0.5" y="0.5" width="1159" height="247" rx="9.5" stroke="#B2B2B2" stroke-dasharray="8 8"/>
<path d="M488.5 118.441C492.447 118.441 495.605 121.618 495.605 125.588C495.605 129.559 492.447 132.735 488.5 132.735C484.553 132.735 481.395 129.559 481.395 125.588C481.395 121.618 484.553 118.441 488.5 118.441ZM488.5 120.029C487.034 120.029 485.629 120.615 484.592 121.658C483.556 122.7 482.974 124.114 482.974 125.588C482.974 127.063 483.556 128.476 484.592 129.519C485.629 130.561 487.034 131.147 488.5 131.147C489.966 131.147 491.371 130.561 492.408 129.519C493.444 128.476 494.026 127.063 494.026 125.588C494.026 124.114 493.444 122.7 492.408 121.658C491.371 120.615 489.966 120.029 488.5 120.029ZM478.237 113.676H481.395L484.553 110.5H492.447L495.605 113.676H498.763C500.019 113.676 501.224 114.178 502.113 115.072C503.001 115.966 503.5 117.177 503.5 118.441V132.735C503.5 133.999 503.001 135.211 502.113 136.104C501.224 136.998 500.019 137.5 498.763 137.5H478.237C476.981 137.5 475.776 136.998 474.887 136.104C473.999 135.211 473.5 133.999 473.5 132.735V118.441C473.5 117.177 473.999 115.966 474.887 115.072C475.776 114.178 476.981 113.676 478.237 113.676ZM485.2 112.088L482.042 115.265H478.237C477.399 115.265 476.596 115.599 476.004 116.195C475.412 116.791 475.079 117.599 475.079 118.441V132.735C475.079 133.578 475.412 134.386 476.004 134.981C476.596 135.577 477.399 135.912 478.237 135.912H498.763C499.601 135.912 500.404 135.577 500.996 134.981C501.588 134.386 501.921 133.578 501.921 132.735V118.441C501.921 117.599 501.588 116.791 500.996 116.195C500.404 115.599 499.601 115.265 498.763 115.265H494.958L491.8 112.088H485.2Z" fill="black"/>
<path d="M517.984 116.477V115.045H530.641V116.477H525.109V132.5H523.516V116.477H517.984ZM536.15 124.318V132.5H534.633V115.045H536.15V121.463H536.287C536.594 120.787 537.068 120.247 537.71 119.844C538.358 119.44 539.176 119.239 540.165 119.239C541.051 119.239 541.829 119.42 542.5 119.784C543.17 120.148 543.693 120.685 544.068 121.395C544.443 122.105 544.63 122.98 544.63 124.02V132.5H543.105V124.114C543.105 123.034 542.804 122.185 542.201 121.565C541.605 120.94 540.798 120.628 539.781 120.628C539.082 120.628 538.46 120.776 537.915 121.071C537.369 121.366 536.937 121.793 536.619 122.349C536.307 122.901 536.15 123.557 536.15 124.318ZM554.638 132.773C553.417 132.773 552.36 132.489 551.468 131.92C550.576 131.347 549.885 130.554 549.397 129.543C548.914 128.526 548.672 127.355 548.672 126.031C548.672 124.713 548.914 123.543 549.397 122.52C549.885 121.491 550.559 120.687 551.417 120.108C552.28 119.523 553.277 119.23 554.408 119.23C555.118 119.23 555.803 119.361 556.462 119.622C557.121 119.878 557.712 120.273 558.235 120.807C558.763 121.335 559.181 122.003 559.488 122.81C559.794 123.611 559.948 124.56 559.948 125.656V126.406H549.72V125.068H558.397C558.397 124.227 558.226 123.472 557.885 122.801C557.55 122.125 557.081 121.591 556.479 121.199C555.882 120.807 555.192 120.611 554.408 120.611C553.578 120.611 552.848 120.832 552.218 121.276C551.587 121.719 551.093 122.304 550.735 123.031C550.382 123.759 550.203 124.554 550.198 125.418V126.219C550.198 127.259 550.377 128.168 550.735 128.946C551.098 129.719 551.613 130.318 552.277 130.744C552.942 131.17 553.729 131.384 554.638 131.384C555.257 131.384 555.8 131.287 556.266 131.094C556.738 130.901 557.132 130.642 557.451 130.318C557.774 129.989 558.019 129.628 558.184 129.236L559.624 129.705C559.425 130.256 559.098 130.764 558.644 131.23C558.195 131.696 557.632 132.071 556.956 132.355C556.286 132.634 555.513 132.773 554.638 132.773ZM556.368 117.909L554.331 115.446L552.294 117.909H550.811V117.798L553.692 114.364H554.97L557.851 117.798V117.909H556.368ZM564.011 132.5V119.409H565.485V121.42H565.622C565.883 120.744 566.318 120.213 566.926 119.827C567.539 119.435 568.275 119.239 569.133 119.239C570.036 119.239 570.778 119.452 571.357 119.878C571.943 120.298 572.38 120.878 572.67 121.616H572.781C573.076 120.889 573.556 120.312 574.221 119.886C574.891 119.455 575.704 119.239 576.659 119.239C577.874 119.239 578.835 119.622 579.539 120.389C580.244 121.151 580.596 122.264 580.596 123.73V132.5H579.079V123.73C579.079 122.696 578.815 121.92 578.286 121.403C577.758 120.886 577.062 120.628 576.198 120.628C575.198 120.628 574.428 120.935 573.889 121.548C573.349 122.162 573.079 122.94 573.079 123.884V132.5H571.528V123.594C571.528 122.707 571.281 121.991 570.786 121.446C570.292 120.901 569.596 120.628 568.698 120.628C568.096 120.628 567.553 120.776 567.07 121.071C566.593 121.366 566.215 121.778 565.937 122.307C565.664 122.83 565.528 123.432 565.528 124.114V132.5H564.011ZM594.319 124.318V132.5H592.802V115.045H594.319V121.463H594.456C594.763 120.787 595.237 120.247 595.879 119.844C596.527 119.44 597.345 119.239 598.334 119.239C599.22 119.239 599.998 119.42 600.669 119.784C601.339 120.148 601.862 120.685 602.237 121.395C602.612 122.105 602.8 122.98 602.8 124.02V132.5H601.274V124.114C601.274 123.034 600.973 122.185 600.371 121.565C599.774 120.94 598.967 120.628 597.95 120.628C597.251 120.628 596.629 120.776 596.084 121.071C595.538 121.366 595.106 121.793 594.788 122.349C594.476 122.901 594.319 123.557 594.319 124.318ZM607.532 132.5V119.409H609.057V132.5H607.532ZM607.659 117.594L605.043 113.724H606.841L609.023 117.594H607.659ZM615.306 124.318V132.5H613.789V119.409H615.264V121.463H615.4C615.707 120.793 616.184 120.256 616.832 119.852C617.485 119.443 618.292 119.239 619.252 119.239C620.133 119.239 620.906 119.423 621.57 119.793C622.241 120.156 622.761 120.693 623.13 121.403C623.505 122.114 623.693 122.986 623.693 124.02V132.5H622.176V124.114C622.176 123.04 621.874 122.19 621.272 121.565C620.676 120.94 619.874 120.628 618.869 120.628C618.181 120.628 617.57 120.776 617.036 121.071C616.502 121.366 616.079 121.793 615.767 122.349C615.46 122.901 615.306 123.557 615.306 124.318ZM629.925 124.318V132.5H628.408V115.045H629.925V121.463H630.061C630.368 120.787 630.842 120.247 631.484 119.844C632.132 119.44 632.95 119.239 633.939 119.239C634.825 119.239 635.604 119.42 636.274 119.784C636.945 120.148 637.467 120.685 637.842 121.395C638.217 122.105 638.405 122.98 638.405 124.02V132.5H636.879V124.114C636.879 123.034 636.578 122.185 635.976 121.565C635.379 120.94 634.572 120.628 633.555 120.628C632.857 120.628 632.234 120.776 631.689 121.071C631.143 121.366 630.712 121.793 630.393 122.349C630.081 122.901 629.925 123.557 629.925 124.318ZM654.246 132.798C653.456 132.798 652.735 132.645 652.081 132.338C651.428 132.026 650.908 131.577 650.522 130.991C650.135 130.401 649.942 129.685 649.942 128.844C649.942 128.196 650.064 127.651 650.309 127.207C650.553 126.764 650.9 126.401 651.348 126.116C651.797 125.832 652.329 125.608 652.942 125.443C653.556 125.278 654.232 125.151 654.971 125.06C655.704 124.969 656.323 124.889 656.829 124.821C657.34 124.753 657.729 124.645 657.996 124.497C658.263 124.349 658.397 124.111 658.397 123.781V123.474C658.397 122.582 658.13 121.881 657.596 121.369C657.067 120.852 656.306 120.594 655.311 120.594C654.368 120.594 653.598 120.801 653.002 121.216C652.411 121.631 651.996 122.119 651.757 122.682L650.317 122.162C650.613 121.446 651.022 120.875 651.544 120.449C652.067 120.017 652.652 119.707 653.3 119.52C653.948 119.327 654.604 119.23 655.269 119.23C655.769 119.23 656.289 119.295 656.829 119.426C657.374 119.557 657.88 119.784 658.346 120.108C658.811 120.426 659.189 120.872 659.479 121.446C659.769 122.014 659.914 122.736 659.914 123.611V132.5H658.397V130.429H658.303C658.121 130.815 657.851 131.19 657.493 131.554C657.135 131.918 656.686 132.216 656.147 132.449C655.607 132.682 654.973 132.798 654.246 132.798ZM654.451 131.409C655.257 131.409 655.956 131.23 656.547 130.872C657.138 130.514 657.593 130.04 657.911 129.449C658.235 128.852 658.397 128.196 658.397 127.48V125.588C658.283 125.696 658.093 125.793 657.826 125.878C657.564 125.963 657.26 126.04 656.914 126.108C656.573 126.17 656.232 126.224 655.891 126.27C655.55 126.315 655.243 126.355 654.971 126.389C654.232 126.48 653.601 126.622 653.079 126.815C652.556 127.009 652.155 127.276 651.877 127.616C651.598 127.952 651.459 128.384 651.459 128.912C651.459 129.707 651.743 130.324 652.311 130.761C652.88 131.193 653.593 131.409 654.451 131.409ZM656.079 117.67H654.783V115.889C655.402 115.855 655.837 115.761 656.087 115.608C656.337 115.455 656.462 115.213 656.462 114.884C656.462 114.509 656.286 114.236 655.934 114.065C655.587 113.889 655.124 113.798 654.544 113.793L654.621 112.753C655.695 112.753 656.502 112.949 657.042 113.341C657.587 113.733 657.86 114.256 657.86 114.909C657.86 115.477 657.681 115.906 657.323 116.196C656.971 116.48 656.556 116.651 656.079 116.707V117.67ZM666.186 124.318V132.5H664.669V119.409H666.144V121.463H666.28C666.587 120.793 667.064 120.256 667.712 119.852C668.365 119.443 669.172 119.239 670.132 119.239C671.013 119.239 671.786 119.423 672.451 119.793C673.121 120.156 673.641 120.693 674.01 121.403C674.385 122.114 674.573 122.986 674.573 124.02V132.5H673.056V124.114C673.056 123.04 672.754 122.19 672.152 121.565C671.556 120.94 670.754 120.628 669.749 120.628C669.061 120.628 668.451 120.776 667.916 121.071C667.382 121.366 666.959 121.793 666.647 122.349C666.34 122.901 666.186 123.557 666.186 124.318ZM680.805 124.318V132.5H679.288V115.045H680.805V121.463H680.941C681.248 120.787 681.722 120.247 682.364 119.844C683.012 119.44 683.83 119.239 684.819 119.239C685.705 119.239 686.484 119.42 687.154 119.784C687.825 120.148 688.347 120.685 688.722 121.395C689.097 122.105 689.285 122.98 689.285 124.02V132.5H687.759V124.114C687.759 123.034 687.458 122.185 686.856 121.565C686.259 120.94 685.452 120.628 684.435 120.628C683.737 120.628 683.114 120.776 682.569 121.071C682.023 121.366 681.592 121.793 681.273 122.349C680.961 122.901 680.805 123.557 680.805 124.318Z" fill="black"/>
</svg>
