<svg width="1160" height="248" viewBox="0 0 1160 248" fill="none" xmlns="http://www.w3.org/2000/svg">
<rect x="0.5" y="0.5" width="1159" height="247" rx="9.5" stroke="#B2B2B2" stroke-dasharray="8 8"/>
<path d="M513 118.441C516.947 118.441 520.105 121.618 520.105 125.588C520.105 129.559 516.947 132.735 513 132.735C509.053 132.735 505.895 129.559 505.895 125.588C505.895 121.618 509.053 118.441 513 118.441ZM513 120.029C511.534 120.029 510.129 120.615 509.092 121.658C508.056 122.7 507.474 124.114 507.474 125.588C507.474 127.063 508.056 128.476 509.092 129.519C510.129 130.561 511.534 131.147 513 131.147C514.466 131.147 515.871 130.561 516.908 129.519C517.944 128.476 518.526 127.063 518.526 125.588C518.526 124.114 517.944 122.7 516.908 121.658C515.871 120.615 514.466 120.029 513 120.029ZM502.737 113.676H505.895L509.053 110.5H516.947L520.105 113.676H523.263C524.519 113.676 525.724 114.178 526.613 115.072C527.501 115.966 528 117.177 528 118.441V132.735C528 133.999 527.501 135.211 526.613 136.104C525.724 136.998 524.519 137.5 523.263 137.5H502.737C501.481 137.5 500.276 136.998 499.387 136.104C498.499 135.211 498 133.999 498 132.735V118.441C498 117.177 498.499 115.966 499.387 115.072C500.276 114.178 501.481 113.676 502.737 113.676ZM509.7 112.088L506.542 115.265H502.737C501.899 115.265 501.096 115.599 500.504 116.195C499.912 116.791 499.579 117.599 499.579 118.441V132.735C499.579 133.578 499.912 134.386 500.504 134.981C501.096 135.577 501.899 135.912 502.737 135.912H523.263C524.101 135.912 524.904 135.577 525.496 134.981C526.088 134.386 526.421 133.578 526.421 132.735V118.441C526.421 117.599 526.088 116.791 525.496 116.195C524.904 115.599 524.101 115.265 523.263 115.265H519.458L516.3 112.088H509.7Z" fill="black"/>
<path d="M543.557 132.5H541.887L548.236 115.045H549.941L556.29 132.5H554.62L549.148 117.116H549.029L543.557 132.5ZM544.759 125.81H553.418V127.241H544.759V125.81ZM564.4 132.773C563.326 132.773 562.385 132.489 561.579 131.92C560.772 131.352 560.141 130.56 559.687 129.543C559.238 128.526 559.013 127.341 559.013 125.989C559.013 124.642 559.238 123.463 559.687 122.452C560.141 121.435 560.775 120.645 561.587 120.082C562.4 119.514 563.346 119.23 564.425 119.23C565.221 119.23 565.883 119.372 566.411 119.656C566.939 119.935 567.363 120.281 567.681 120.696C567.999 121.111 568.246 121.514 568.422 121.906H568.559V115.045H570.084V132.5H568.601V130.071H568.422C568.246 130.469 567.996 130.878 567.672 131.298C567.349 131.713 566.92 132.062 566.385 132.347C565.857 132.631 565.195 132.773 564.4 132.773ZM564.579 131.384C565.425 131.384 566.147 131.153 566.743 130.693C567.34 130.227 567.795 129.588 568.107 128.776C568.425 127.957 568.584 127.02 568.584 125.963C568.584 124.918 568.428 123.994 568.116 123.193C567.803 122.386 567.349 121.756 566.752 121.301C566.155 120.841 565.431 120.611 564.579 120.611C563.704 120.611 562.965 120.849 562.363 121.327C561.766 121.798 561.312 122.437 560.999 123.244C560.692 124.051 560.539 124.957 560.539 125.963C560.539 126.98 560.695 127.898 561.008 128.716C561.32 129.534 561.775 130.185 562.371 130.668C562.974 131.145 563.709 131.384 564.579 131.384ZM579.838 132.773C578.765 132.773 577.824 132.489 577.017 131.92C576.211 131.352 575.58 130.56 575.125 129.543C574.676 128.526 574.452 127.341 574.452 125.989C574.452 124.642 574.676 123.463 575.125 122.452C575.58 121.435 576.213 120.645 577.026 120.082C577.838 119.514 578.784 119.23 579.864 119.23C580.659 119.23 581.321 119.372 581.85 119.656C582.378 119.935 582.801 120.281 583.12 120.696C583.438 121.111 583.685 121.514 583.861 121.906H583.997V115.045H585.523V132.5H584.04V130.071H583.861C583.685 130.469 583.435 130.878 583.111 131.298C582.787 131.713 582.358 132.062 581.824 132.347C581.296 132.631 580.634 132.773 579.838 132.773ZM580.017 131.384C580.864 131.384 581.586 131.153 582.182 130.693C582.779 130.227 583.233 129.588 583.546 128.776C583.864 127.957 584.023 127.02 584.023 125.963C584.023 124.918 583.867 123.994 583.554 123.193C583.242 122.386 582.787 121.756 582.191 121.301C581.594 120.841 580.87 120.611 580.017 120.611C579.142 120.611 578.404 120.849 577.801 121.327C577.205 121.798 576.75 122.437 576.438 123.244C576.131 124.051 575.978 124.957 575.978 125.963C575.978 126.98 576.134 127.898 576.446 128.716C576.759 129.534 577.213 130.185 577.81 130.668C578.412 131.145 579.148 131.384 580.017 131.384ZM598.051 132.5V119.409H599.577V132.5H598.051ZM598.827 117.159C598.514 117.159 598.247 117.054 598.026 116.844C597.804 116.628 597.693 116.369 597.693 116.068C597.693 115.767 597.804 115.511 598.026 115.301C598.247 115.085 598.514 114.977 598.827 114.977C599.139 114.977 599.406 115.085 599.628 115.301C599.849 115.511 599.96 115.767 599.96 116.068C599.96 116.369 599.849 116.628 599.628 116.844C599.406 117.054 599.139 117.159 598.827 117.159ZM604.309 132.5V119.409H605.783V121.42H605.92C606.181 120.744 606.616 120.213 607.224 119.827C607.837 119.435 608.573 119.239 609.431 119.239C610.334 119.239 611.076 119.452 611.655 119.878C612.241 120.298 612.678 120.878 612.968 121.616H613.079C613.374 120.889 613.854 120.312 614.519 119.886C615.189 119.455 616.002 119.239 616.957 119.239C618.172 119.239 619.133 119.622 619.837 120.389C620.542 121.151 620.894 122.264 620.894 123.73V132.5H619.377V123.73C619.377 122.696 619.113 121.92 618.584 121.403C618.056 120.886 617.36 120.628 616.496 120.628C615.496 120.628 614.726 120.935 614.187 121.548C613.647 122.162 613.377 122.94 613.377 123.884V132.5H611.826V123.594C611.826 122.707 611.579 121.991 611.084 121.446C610.59 120.901 609.894 120.628 608.996 120.628C608.394 120.628 607.851 120.776 607.368 121.071C606.891 121.366 606.513 121.778 606.235 122.307C605.962 122.83 605.826 123.432 605.826 124.114V132.5H604.309ZM629.287 132.798C628.497 132.798 627.775 132.645 627.122 132.338C626.468 132.026 625.949 131.577 625.562 130.991C625.176 130.401 624.983 129.685 624.983 128.844C624.983 128.196 625.105 127.651 625.349 127.207C625.593 126.764 625.94 126.401 626.389 126.116C626.838 125.832 627.369 125.608 627.983 125.443C628.596 125.278 629.272 125.151 630.011 125.06C630.744 124.969 631.363 124.889 631.869 124.821C632.38 124.753 632.77 124.645 633.037 124.497C633.304 124.349 633.437 124.111 633.437 123.781V123.474C633.437 122.582 633.17 121.881 632.636 121.369C632.108 120.852 631.346 120.594 630.352 120.594C629.409 120.594 628.639 120.801 628.042 121.216C627.451 121.631 627.037 122.119 626.798 122.682L625.358 122.162C625.653 121.446 626.062 120.875 626.585 120.449C627.108 120.017 627.693 119.707 628.341 119.52C628.988 119.327 629.645 119.23 630.309 119.23C630.809 119.23 631.329 119.295 631.869 119.426C632.414 119.557 632.92 119.784 633.386 120.108C633.852 120.426 634.23 120.872 634.52 121.446C634.809 122.014 634.954 122.736 634.954 123.611V132.5H633.437V130.429H633.343C633.162 130.815 632.892 131.19 632.534 131.554C632.176 131.918 631.727 132.216 631.187 132.449C630.647 132.682 630.014 132.798 629.287 132.798ZM629.491 131.409C630.298 131.409 630.997 131.23 631.588 130.872C632.179 130.514 632.633 130.04 632.951 129.449C633.275 128.852 633.437 128.196 633.437 127.48V125.588C633.324 125.696 633.133 125.793 632.866 125.878C632.605 125.963 632.301 126.04 631.954 126.108C631.613 126.17 631.272 126.224 630.931 126.27C630.591 126.315 630.284 126.355 630.011 126.389C629.272 126.48 628.642 126.622 628.119 126.815C627.596 127.009 627.196 127.276 626.917 127.616C626.639 127.952 626.5 128.384 626.5 128.912C626.5 129.707 626.784 130.324 627.352 130.761C627.92 131.193 628.633 131.409 629.491 131.409ZM644.704 137.682C643.812 137.682 643.031 137.565 642.36 137.332C641.69 137.105 641.124 136.793 640.664 136.395C640.204 135.997 639.846 135.551 639.59 135.057L640.835 134.239C641.022 134.568 641.272 134.892 641.585 135.21C641.903 135.528 642.315 135.793 642.821 136.003C643.332 136.213 643.96 136.318 644.704 136.318C645.863 136.318 646.798 136.028 647.508 135.449C648.224 134.869 648.582 133.969 648.582 132.747V129.798H648.446C648.269 130.196 648.017 130.594 647.687 130.991C647.357 131.384 646.926 131.71 646.392 131.972C645.863 132.233 645.207 132.364 644.423 132.364C643.377 132.364 642.448 132.105 641.636 131.588C640.829 131.071 640.193 130.332 639.727 129.372C639.267 128.406 639.036 127.256 639.036 125.92C639.036 124.597 639.261 123.432 639.71 122.426C640.164 121.42 640.798 120.636 641.61 120.074C642.423 119.511 643.369 119.23 644.448 119.23C645.249 119.23 645.914 119.372 646.443 119.656C646.971 119.935 647.394 120.281 647.713 120.696C648.036 121.111 648.289 121.514 648.471 121.906H648.624V119.409H650.107V132.841C650.107 133.949 649.872 134.861 649.4 135.577C648.928 136.293 648.286 136.821 647.474 137.162C646.661 137.509 645.738 137.682 644.704 137.682ZM644.602 130.974C645.443 130.974 646.161 130.773 646.758 130.369C647.355 129.96 647.812 129.375 648.13 128.614C648.448 127.852 648.607 126.946 648.607 125.895C648.607 124.872 648.451 123.966 648.139 123.176C647.826 122.381 647.372 121.756 646.775 121.301C646.184 120.841 645.46 120.611 644.602 120.611C643.727 120.611 642.988 120.847 642.386 121.318C641.784 121.79 641.329 122.426 641.022 123.227C640.715 124.023 640.562 124.912 640.562 125.895C640.562 126.895 640.718 127.778 641.031 128.545C641.343 129.307 641.801 129.903 642.403 130.335C643.005 130.761 643.738 130.974 644.602 130.974ZM660.136 132.773C658.915 132.773 657.858 132.489 656.966 131.92C656.074 131.347 655.384 130.554 654.895 129.543C654.412 128.526 654.17 127.355 654.17 126.031C654.17 124.713 654.412 123.543 654.895 122.52C655.384 121.491 656.057 120.687 656.915 120.108C657.778 119.523 658.776 119.23 659.906 119.23C660.617 119.23 661.301 119.361 661.96 119.622C662.619 119.878 663.21 120.273 663.733 120.807C664.261 121.335 664.679 122.003 664.986 122.81C665.293 123.611 665.446 124.56 665.446 125.656V126.406H655.219V125.068H663.895C663.895 124.227 663.724 123.472 663.384 122.801C663.048 122.125 662.58 121.591 661.977 121.199C661.381 120.807 660.69 120.611 659.906 120.611C659.077 120.611 658.347 120.832 657.716 121.276C657.085 121.719 656.591 122.304 656.233 123.031C655.881 123.759 655.702 124.554 655.696 125.418V126.219C655.696 127.259 655.875 128.168 656.233 128.946C656.597 129.719 657.111 130.318 657.776 130.744C658.44 131.17 659.227 131.384 660.136 131.384C660.756 131.384 661.298 131.287 661.764 131.094C662.236 130.901 662.631 130.642 662.949 130.318C663.273 129.989 663.517 129.628 663.682 129.236L665.122 129.705C664.923 130.256 664.597 130.764 664.142 131.23C663.693 131.696 663.131 132.071 662.455 132.355C661.784 132.634 661.011 132.773 660.136 132.773Z" fill="black"/>
</svg>
