<svg width="24" height="24" viewBox="0 0 24 24" fill="none" xmlns="http://www.w3.org/2000/svg">
<path d="M20 12V5.749C20.0001 5.67006 19.9845 5.59189 19.9543 5.51896C19.9241 5.44603 19.8798 5.37978 19.824 5.324L16.676 2.176C16.5636 2.06345 16.4111 2.00014 16.252 2H4.6C4.44087 2 4.28826 2.06321 4.17574 2.17574C4.06321 2.28826 4 2.44087 4 2.6V21.4C4 21.5591 4.06321 21.7117 4.17574 21.8243C4.28826 21.9368 4.44087 22 4.6 22H11M8 10H16M8 6H12M8 14H11M17.954 16.94L18.954 15.94C19.058 15.8357 19.1816 15.7529 19.3177 15.6965C19.4538 15.64 19.5997 15.6109 19.747 15.6109C19.8943 15.6109 20.0402 15.64 20.1763 15.6965C20.3124 15.7529 20.436 15.8357 20.54 15.94C20.6442 16.044 20.7268 16.1676 20.7832 16.3035C20.8396 16.4395 20.8686 16.5853 20.8686 16.7325C20.8686 16.8797 20.8396 17.0255 20.7832 17.1615C20.7268 17.2974 20.6442 17.421 20.54 17.525L19.54 18.525L17.954 16.939L14.963 19.93C14.8135 20.08 14.7154 20.2737 14.683 20.483L14.439 22.04L15.996 21.797C16.2053 21.7646 16.399 21.6665 16.549 21.517L19.539 18.525" stroke="black" stroke-width="1.5" stroke-linecap="round" stroke-linejoin="round"/>
<path d="M16 2V5.4C16 5.55913 16.0632 5.71174 16.1757 5.82426C16.2883 5.93679 16.4409 6 16.6 6H20" stroke="black" stroke-width="1.5" stroke-linecap="round" stroke-linejoin="round"/>
</svg>
