<svg width="40" height="31" viewBox="0 0 40 31" fill="none" xmlns="http://www.w3.org/2000/svg">
<path d="M20 9.94118C23.9474 9.94118 27.1053 13.1176 27.1053 17.0882C27.1053 21.0588 23.9474 24.2353 20 24.2353C16.0526 24.2353 12.8947 21.0588 12.8947 17.0882C12.8947 13.1176 16.0526 9.94118 20 9.94118ZM20 11.5294C18.5343 11.5294 17.1287 12.1151 16.0923 13.1576C15.0559 14.2 14.4737 15.6139 14.4737 17.0882C14.4737 18.5625 15.0559 19.9764 16.0923 21.0189C17.1287 22.0614 18.5343 22.6471 20 22.6471C21.4657 22.6471 22.8713 22.0614 23.9077 21.0189C24.9441 19.9764 25.5263 18.5625 25.5263 17.0882C25.5263 15.6139 24.9441 14.2 23.9077 13.1576C22.8713 12.1151 21.4657 11.5294 20 11.5294ZM9.73684 5.17647H12.8947L16.0526 2H23.9474L27.1053 5.17647H30.2632C31.5194 5.17647 32.7243 5.67847 33.6126 6.57202C34.5009 7.46558 35 8.6775 35 9.94118V24.2353C35 25.499 34.5009 26.7109 33.6126 27.6045C32.7243 28.498 31.5194 29 30.2632 29H9.73684C8.48055 29 7.27572 28.498 6.38739 27.6045C5.49906 26.7109 5 25.499 5 24.2353V9.94118C5 8.6775 5.49906 7.46558 6.38739 6.57202C7.27572 5.67847 8.48055 5.17647 9.73684 5.17647ZM16.7 3.58824L13.5421 6.76471H9.73684C8.89932 6.76471 8.09609 7.09937 7.50387 7.69507C6.91165 8.29078 6.57895 9.09872 6.57895 9.94118V24.2353C6.57895 25.0777 6.91165 25.8857 7.50387 26.4814C8.09609 27.0771 8.89932 27.4118 9.73684 27.4118H30.2632C31.1007 27.4118 31.9039 27.0771 32.4961 26.4814C33.0883 25.8857 33.4211 25.0777 33.4211 24.2353V9.94118C33.4211 9.09872 33.0883 8.29078 32.4961 7.69507C31.9039 7.09937 31.1007 6.76471 30.2632 6.76471H26.4579L23.3 3.58824H16.7Z" fill="black"/>
</svg>
