<svg width="24" height="24" viewBox="0 0 24 24" fill="none" xmlns="http://www.w3.org/2000/svg">
<path d="M12.3653 21C11.7109 21 11.0564 20.7519 10.5599 20.2556L3.24824 12.9586C3.08949 12.8002 3.0002 12.5852 3 12.3609V3.84586C3 3.38346 3.38364 3 3.84626 3H12.354C12.5797 3 12.7941 3.09023 12.952 3.24812L20.2638 10.5564C21.2454 11.5489 21.2454 13.1617 20.2638 14.1541L14.1594 20.2556C13.6629 20.7519 13.0085 21 12.354 21H12.3653ZM4.69252 12.0113L11.756 19.0602C12.0945 19.3872 12.6361 19.3872 12.9633 19.0602L19.0677 12.9586C19.3949 12.6316 19.3949 12.0902 19.0677 11.7519L12.0042 4.69173H4.69252V12V12.0113ZM8.05501 9.46241C7.68094 9.46241 7.32219 9.31388 7.05768 9.04949C6.79317 8.78511 6.64457 8.42653 6.64457 8.05263C6.64457 7.67874 6.79317 7.32016 7.05768 7.05577C7.32219 6.79139 7.68094 6.64286 8.05501 6.64286C8.42908 6.64286 8.78783 6.79139 9.05234 7.05577C9.31684 7.32016 9.46544 7.67874 9.46544 8.05263C9.46544 8.42653 9.31684 8.78511 9.05234 9.04949C8.78783 9.31388 8.42908 9.46241 8.05501 9.46241Z" fill="black"/>
</svg>
