<svg width="18" height="18" viewBox="0 0 18 18" fill="none" xmlns="http://www.w3.org/2000/svg">
<path d="M1.125 4.284V16.1831C1.125 16.3849 1.18987 16.5506 1.31962 16.6804C1.44937 16.8101 1.6155 16.875 1.818 16.875H16.1831C16.3849 16.875 16.5506 16.8101 16.6804 16.6804C16.8101 16.5506 16.875 16.3849 16.875 16.1831V4.284H12.375V10.4377C12.375 10.7828 12.2329 11.0452 11.9486 11.2252C11.6644 11.4052 11.3708 11.4157 11.0677 11.2567L9 10.233L6.93113 11.2567C6.62888 11.415 6.33562 11.4045 6.05137 11.2252C5.76712 11.0452 5.625 10.7828 5.625 10.4377V4.284H1.125ZM1.818 18C1.314 18 0.885 17.823 0.531 17.469C0.177 17.115 0 16.6864 0 16.1831V3.92175C0 3.70275 0.0348749 3.4965 0.104625 3.303C0.174375 3.1095 0.279375 2.93138 0.419625 2.76863L2.17238 0.664875C2.33513 0.445125 2.53875 0.279375 2.78325 0.167625C3.02775 0.0558752 3.28987 0 3.56962 0H14.3876C14.6666 0 14.9321 0.0558752 15.1841 0.167625C15.4361 0.279375 15.6435 0.44475 15.8062 0.66375L17.5804 2.8125C17.7206 2.97525 17.8256 3.15713 17.8954 3.35813C17.9651 3.55838 18 3.76838 18 3.98813V16.1831C18 16.6856 17.823 17.1143 17.469 17.469C17.115 17.823 16.6864 18 16.1831 18H1.818ZM1.5525 3.159H16.425L14.9288 1.36125C14.856 1.28925 14.7728 1.23188 14.679 1.18913C14.5852 1.14638 14.4878 1.125 14.3865 1.125H3.591C3.4905 1.125 3.393 1.14675 3.2985 1.19025C3.204 1.23375 3.1215 1.2915 3.051 1.3635L1.5525 3.159ZM6.74887 4.284V10.0811L8.99887 8.95613L11.2489 10.0811V4.28512L6.74887 4.284Z" fill="black"/>
</svg>
