<svg width="19" height="18" viewBox="0 0 19 18" fill="none" xmlns="http://www.w3.org/2000/svg">
<path d="M3.86803 17.7C3.76803 17.7 3.66803 17.65 3.56803 17.6C3.36803 17.45 3.31803 17.25 3.36803 17.05L5.31803 11.05L0.218034 7.3C0.018034 7.15 -0.031966 6.95 0.018034 6.75C0.068034 6.55 0.268034 6.4 0.518034 6.4H6.86803L8.76803 0.35C8.81803 0.15 9.01803 0 9.26803 0C9.51803 0 9.66803 0.15 9.76803 0.35L11.718 6.4H18.068C18.268 6.4 18.468 6.5 18.568 6.7C18.668 6.9 18.568 7.15 18.368 7.25L13.268 10.95L15.218 16.95C15.268 17.15 15.218 17.4 15.018 17.5C14.818 17.6 14.618 17.65 14.418 17.5L9.26803 13.9L4.16803 17.6C4.06803 17.65 3.96803 17.7 3.86803 17.7ZM9.26803 12.75C9.36803 12.75 9.46803 12.8 9.56803 12.85L13.718 15.9L12.118 11C12.068 10.8 12.118 10.55 12.318 10.45L16.468 7.4H11.318C11.118 7.4 10.918 7.25 10.818 7.05L9.26803 2.15L7.66803 7.05C7.61803 7.25 7.41803 7.4 7.16803 7.4H2.01803L6.16803 10.45C6.36803 10.6 6.41803 10.8 6.36803 11L4.81803 15.9L8.96803 12.85C9.06803 12.8 9.16803 12.75 9.26803 12.75Z" fill="black"/>
</svg>
