<svg width="12" height="17" viewBox="0 0 12 17" fill="none" xmlns="http://www.w3.org/2000/svg">
<path d="M5.14286 0V1.43792C2.76857 1.58171 0.857143 3.22717 0.857143 5.22396C0.857143 7.05429 2.45486 8.61546 4.63371 8.94271L5.14286 9.03125V14.1667H4.60714C4.22709 14.1671 3.85066 14.1056 3.49943 13.9856C3.14819 13.8657 2.82906 13.6896 2.56033 13.4675C2.29159 13.2454 2.07852 12.9817 1.93334 12.6914C1.78816 12.4012 1.71372 12.0901 1.71429 11.776V10.625H0V11.776C0 13.8656 2.07943 15.5833 4.60714 15.5833H5.14286V17H6.85714V15.5833H7.39286C9.91971 15.5833 12 13.8649 12 11.776C12 9.94571 10.4031 8.38454 8.22343 8.05729L6.85714 7.83558V2.856C7.56379 2.91893 8.21733 3.19557 8.69203 3.63271C9.16673 4.06985 9.42907 4.63661 9.42857 5.22396V6.375H11.1429V5.22396C11.1429 3.22646 9.23143 1.58171 6.85714 1.43863V0H5.14286ZM5.14286 2.85458V7.57067L4.92857 7.548C4.26671 7.45354 3.66676 7.16833 3.23524 6.74299C2.80371 6.31765 2.56852 5.77971 2.57143 5.22467C2.57051 4.63707 2.83265 4.06997 3.3074 3.63253C3.78214 3.19509 4.43591 2.91825 5.14286 2.85529V2.85458ZM6.85714 9.29688L7.92857 9.45271C8.59073 9.54663 9.19108 9.8317 9.62272 10.2572C10.0544 10.6826 10.2893 11.2208 10.2857 11.776C10.2863 12.0901 10.2118 12.4012 10.0667 12.6914C9.92148 12.9817 9.70841 13.2454 9.43967 13.4675C9.17093 13.6896 8.85181 13.8657 8.50057 13.9856C8.14934 14.1056 7.77291 14.1671 7.39286 14.1667H6.85714V9.29688Z" fill="black"/>
</svg>
