<svg width="66" height="62" viewBox="0 0 66 62" fill="none" xmlns="http://www.w3.org/2000/svg">
<rect width="66" height="62" rx="10" fill="#3382D0"/>
<path d="M33 50.25C35.4062 50.25 37.375 48.4731 37.375 46.3013H28.625C28.625 48.4731 30.5938 50.25 33 50.25ZM46.125 38.4038V28.5321C46.125 22.4708 42.5594 17.3967 36.2812 16.0541V14.7115C36.2812 13.0728 34.8156 11.75 33 11.75C31.1844 11.75 29.7188 13.0728 29.7188 14.7115V16.0541C23.4625 17.3967 19.875 22.451 19.875 28.5321V38.4038L15.5 42.3526V44.3269H50.5V42.3526L46.125 38.4038ZM41.75 40.3782H24.25V28.5321C24.25 23.6356 27.5531 19.6474 33 19.6474C38.4469 19.6474 41.75 23.6356 41.75 28.5321V40.3782Z" fill="white"/>
</svg>
