<svg width="41" height="37" viewBox="0 0 41 37" fill="none" xmlns="http://www.w3.org/2000/svg">
<rect width="41" height="37" rx="8" fill="#C9E4FF"/>
<path d="M13.9017 13.1471H27.0974M13.9017 19.2647H23.7985M30.3964 5.5C31.7088 5.5 32.9674 5.9834 33.8954 6.84386C34.8234 7.70432 35.3448 8.87136 35.3448 10.0882V22.3235C35.3448 23.5404 34.8234 24.7074 33.8954 25.5679C32.9674 26.4284 31.7088 26.9118 30.3964 26.9118H22.149L13.9017 31.5V26.9118H10.6027C9.29031 26.9118 8.03166 26.4284 7.10365 25.5679C6.17565 24.7074 5.6543 23.5404 5.6543 22.3235V10.0882C5.6543 8.87136 6.17565 7.70432 7.10365 6.84386C8.03166 5.9834 9.29031 5.5 10.6027 5.5H30.3964Z" stroke="#3382D0" stroke-width="2" stroke-linecap="round" stroke-linejoin="round"/>
</svg>
