<svg width="44" height="44" viewBox="0 0 44 44" fill="none" xmlns="http://www.w3.org/2000/svg">
<g clip-path="url(#clip0_1972_818)">
<path d="M18.3642 29.658L33.7564 14.2635M18.3642 30.6843V35.2554C18.3642 40.1282 18.3642 42.5626 19.8213 42.9526C21.2785 43.3426 22.8136 41.3147 25.8838 37.2608L27.5995 34.7895M15.3022 14.631L30.327 7.52899C36.5701 4.57736 39.6916 3.10155 41.6823 4.58146C43.673 6.06138 43.1046 9.43585 41.9655 16.1827L40.0077 27.8045C39.2627 32.2155 38.8912 34.42 37.2473 35.3827C35.6034 36.3453 33.467 35.6064 29.1962 34.1285L16.1334 29.6087C8.14588 26.8459 4.15212 25.4645 4.00436 22.7531C3.85249 20.0436 7.66975 18.2374 15.3022 14.631Z" stroke="black" stroke-width="2" stroke-linecap="round" stroke-linejoin="round"/>
</g>
<defs>
<clipPath id="clip0_1972_818">
<rect width="44" height="44" fill="white"/>
</clipPath>
</defs>
</svg>
