<svg width="64" height="64" viewBox="0 0 64 64" fill="none" xmlns="http://www.w3.org/2000/svg">
<g clip-path="url(#clip0_1958_860)">
<path d="M44 28C44 34.64 38.64 40 32 40C25.36 40 20 34.64 20 28C20 21.36 25.36 16 32 16C38.64 16 44 21.36 44 28Z" fill="black"/>
<path fill-rule="evenodd" clip-rule="evenodd" d="M64 32C64 49.68 49.68 64 32 64C14.32 64 0 49.68 0 32C0 14.32 14.32 0 32 0C49.68 0 64 14.32 64 32ZM16 55C16.64 53.936 22.84 44 31.96 44C41.04 44 47.28 53.96 47.92 55C51.6395 52.4279 54.6785 48.9909 56.7758 44.9845C58.8731 40.9781 59.9658 36.5222 59.96 32C59.96 16.52 47.44 4 31.96 4C16.48 4 3.96 16.52 3.96 32C3.96 41.52 8.72 49.96 16 55Z" fill="black"/>
</g>
<defs>
<clipPath id="clip0_1958_860">
<rect width="64" height="64" fill="white"/>
</clipPath>
</defs>
</svg>
