<svg width="36" height="36" viewBox="0 0 36 36" fill="none" xmlns="http://www.w3.org/2000/svg">
<g filter="url(#filter0_d_805_728)">
<mask id="path-1-inside-1_805_728" fill="white">
<path d="M13.9168 19.8196C11.1505 19.8196 8.80582 18.8592 6.8828 16.9384C4.96093 15.0187 4 12.6758 4 9.90982C4 7.14383 4.96093 4.80041 6.8828 2.87956C8.80467 0.9587 11.1493 -0.00115194 13.9168 1.03747e-06C16.6842 0.00115401 19.0283 0.961582 20.949 2.88129C22.8697 4.80099 23.8307 7.14383 23.8318 9.90982C23.8318 11.1112 23.619 12.274 23.1933 13.3981C22.7676 14.5223 22.2081 15.4839 21.5148 16.2829L31.7396 26.4988C31.9011 26.6602 31.9876 26.8591 31.9992 27.0955C32.0095 27.3295 31.923 27.5388 31.7396 27.7233C31.555 27.9078 31.3509 28 31.1271 28C30.9033 28 30.6991 27.9078 30.5145 27.7233L20.2915 17.5056C19.4263 18.2424 18.4313 18.8125 17.3066 19.2161C16.1818 19.6196 15.0513 19.8214 13.915 19.8214M13.915 18.0919C16.2107 18.0919 18.1493 17.3021 19.7308 15.7225C21.3112 14.143 22.1014 12.2054 22.1014 9.90982C22.1014 7.61425 21.3118 5.67725 19.7326 4.09883C18.1533 2.5204 16.2153 1.73062 13.9185 1.72946C11.6217 1.72946 9.68312 2.51925 8.10271 4.09883C6.52231 5.6784 5.73153 7.6154 5.73037 9.90982C5.72922 12.2042 6.51942 14.1412 8.10098 15.7208C9.68255 17.3004 11.6206 18.0902 13.915 18.0902"/>
</mask>
<path d="M13.9168 19.8196C11.1505 19.8196 8.80582 18.8592 6.8828 16.9384C4.96093 15.0187 4 12.6758 4 9.90982C4 7.14383 4.96093 4.80041 6.8828 2.87956C8.80467 0.9587 11.1493 -0.00115194 13.9168 1.03747e-06C16.6842 0.00115401 19.0283 0.961582 20.949 2.88129C22.8697 4.80099 23.8307 7.14383 23.8318 9.90982C23.8318 11.1112 23.619 12.274 23.1933 13.3981C22.7676 14.5223 22.2081 15.4839 21.5148 16.2829L31.7396 26.4988C31.9011 26.6602 31.9876 26.8591 31.9992 27.0955C32.0095 27.3295 31.923 27.5388 31.7396 27.7233C31.555 27.9078 31.3509 28 31.1271 28C30.9033 28 30.6991 27.9078 30.5145 27.7233L20.2915 17.5056C19.4263 18.2424 18.4313 18.8125 17.3066 19.2161C16.1818 19.6196 15.0513 19.8214 13.915 19.8214M13.915 18.0919C16.2107 18.0919 18.1493 17.3021 19.7308 15.7225C21.3112 14.143 22.1014 12.2054 22.1014 9.90982C22.1014 7.61425 21.3118 5.67725 19.7326 4.09883C18.1533 2.5204 16.2153 1.73062 13.9185 1.72946C11.6217 1.72946 9.68312 2.51925 8.10271 4.09883C6.52231 5.6784 5.73153 7.6154 5.73037 9.90982C5.72922 12.2042 6.51942 14.1412 8.10098 15.7208C9.68255 17.3004 11.6206 18.0902 13.915 18.0902" fill="black"/>
<path d="M6.8828 16.9384L7.58951 16.2309L6.8828 16.9384ZM23.8318 9.90982H24.8318V9.9094L23.8318 9.90982ZM21.5148 16.2829L20.7595 15.6275L20.1487 16.3315L20.808 16.9903L21.5148 16.2829ZM31.7396 26.4988L32.4465 25.7915L32.4464 25.7914L31.7396 26.4988ZM31.9992 27.0955L32.9982 27.0512L32.998 27.0467L31.9992 27.0955ZM31.7396 27.7233L32.4465 28.4306L32.4487 28.4284L31.7396 27.7233ZM30.5145 27.7233L31.2214 27.016L30.5145 27.7233ZM20.2915 17.5056L20.9984 16.7983L20.3457 16.146L19.6431 16.7443L20.2915 17.5056ZM19.7308 15.7225L20.4375 16.4301L20.4377 16.4298L19.7308 15.7225ZM13.9185 1.72946L13.919 0.729464H13.9185V1.72946ZM13.9168 19.8196V18.8196C11.4102 18.8196 9.32133 17.9607 7.58951 16.2309L6.8828 16.9384L6.17609 17.6459C8.29032 19.7577 10.8907 20.8196 13.9168 20.8196V19.8196ZM6.8828 16.9384L7.58951 16.2309C5.85923 14.5025 5 12.4158 5 9.90982H4H3C3 12.9358 4.06263 15.5348 6.17609 17.6459L6.8828 16.9384ZM4 9.90982H5C5 7.4038 5.85925 5.31641 7.58972 3.58685L6.8828 2.87956L6.17588 2.17226C4.06262 4.28441 3 6.88387 3 9.90982H4ZM6.8828 2.87956L7.58972 3.58685C9.32011 1.85737 11.4087 0.998956 13.9164 1L13.9168 1.03747e-06L13.9172 -0.999999C10.89 -1.00126 8.28923 0.0600291 6.17588 2.17226L6.8828 2.87956ZM13.9168 1.03747e-06L13.9164 1C16.4245 1.00105 18.5128 1.86017 20.2421 3.58858L20.949 2.88129L21.6559 2.17399C19.5438 0.0629951 16.9439 -0.998738 13.9172 -0.999999L13.9168 1.03747e-06ZM20.949 2.88129L20.2421 3.58858C21.9714 5.31697 22.8308 7.40389 22.8318 9.91024L23.8318 9.90982L24.8318 9.9094C24.8305 6.88377 23.7681 4.28501 21.6559 2.17399L20.949 2.88129ZM23.8318 9.90982H22.8318C22.8318 10.9902 22.6409 12.033 22.2581 13.044L23.1933 13.3981L24.1285 13.7523C24.597 12.515 24.8318 11.2323 24.8318 9.90982H23.8318ZM23.1933 13.3981L22.2581 13.044C21.8685 14.0728 21.3658 14.9288 20.7595 15.6275L21.5148 16.2829L22.2701 16.9383C23.0505 16.039 23.6667 14.9718 24.1285 13.7523L23.1933 13.3981ZM21.5148 16.2829L20.808 16.9903L31.0328 27.2062L31.7396 26.4988L32.4464 25.7914L22.2216 15.5755L21.5148 16.2829ZM31.7396 26.4988L31.0327 27.2061C31.0318 27.2053 31.028 27.2013 31.023 27.1939C31.0179 27.1865 31.0128 27.1776 31.0086 27.168C30.9995 27.1469 30.9999 27.1358 31.0004 27.1442L31.9992 27.0955L32.998 27.0467C32.9748 26.5722 32.7907 26.1355 32.4465 25.7915L31.7396 26.4988ZM31.9992 27.0955L31.0001 27.1398C30.9997 27.1298 31.0001 27.1151 31.0032 27.0971C31.0063 27.079 31.0115 27.0616 31.0179 27.0459C31.0314 27.0133 31.0437 27.0049 31.0305 27.0182L31.7396 27.7233L32.4487 28.4284C32.8051 28.0699 33.0224 27.5971 32.9982 27.0512L31.9992 27.0955ZM31.7396 27.7233L31.0327 27.016C31.0119 27.0368 31.0121 27.0305 31.0364 27.0195C31.0483 27.0141 31.0633 27.0089 31.0805 27.0052C31.0978 27.0014 31.1138 27 31.1271 27V28V29C31.66 29 32.1081 28.7689 32.4465 28.4306L31.7396 27.7233ZM31.1271 28V27C31.1403 27 31.1563 27.0014 31.1736 27.0052C31.1908 27.0089 31.2059 27.0141 31.2178 27.0195C31.2421 27.0305 31.2422 27.0368 31.2214 27.016L30.5145 27.7233L29.8076 28.4306C30.1461 28.7689 30.5941 29 31.1271 29V28ZM30.5145 27.7233L31.2214 27.016L20.9984 16.7983L20.2915 17.5056L19.5845 18.2129L29.8076 28.4306L30.5145 27.7233ZM20.2915 17.5056L19.6431 16.7443C18.8745 17.3988 17.986 17.9099 16.9689 18.2748L17.3066 19.2161L17.6443 20.1573C18.8766 19.7152 19.9781 19.0859 20.9398 18.267L20.2915 17.5056ZM17.3066 19.2161L16.9689 18.2748C15.9468 18.6415 14.9304 18.8214 13.915 18.8214V19.8214V20.8214C15.1723 20.8214 16.4168 20.5977 17.6443 20.1573L17.3066 19.2161ZM13.915 18.0919V19.0919C16.4677 19.0919 18.6628 18.2025 20.4375 16.4301L19.7308 15.7225L19.0242 15.015C17.6357 16.4017 15.9537 17.0919 13.915 17.0919V18.0919ZM19.7308 15.7225L20.4377 16.4298C22.2115 14.657 23.1014 12.4626 23.1014 9.90982H22.1014H21.1014C21.1014 11.9482 20.411 13.6289 19.0239 15.0153L19.7308 15.7225ZM22.1014 9.90982H23.1014C23.1014 7.35729 22.2122 5.16333 20.4395 3.39153L19.7326 4.09883L19.0256 4.80612C20.4114 6.19117 21.1014 7.87121 21.1014 9.90982H22.1014ZM19.7326 4.09883L20.4395 3.39153C18.6669 1.61989 16.4722 0.730745 13.919 0.729464L13.9185 1.72946L13.918 2.72946C15.9583 2.73049 17.6397 3.42091 19.0256 4.80612L19.7326 4.09883ZM13.9185 1.72946V0.729464C11.3649 0.729464 9.1695 1.61876 7.39579 3.39153L8.10271 4.09883L8.80964 4.80612C10.1967 3.41974 11.8786 2.72946 13.9185 2.72946V1.72946ZM8.10271 4.09883L7.39579 3.39153C5.6223 5.1641 4.73166 7.35773 4.73037 9.90932L5.73037 9.90982L6.73037 9.91032C6.7314 7.87307 7.42231 6.19271 8.80964 4.80612L8.10271 4.09883ZM5.73037 9.90982L4.73037 9.90932C4.72909 12.4615 5.61933 14.6556 7.39432 16.4284L8.10098 15.7208L8.80765 15.0133C7.41952 13.6269 6.72935 11.947 6.73037 9.91032L5.73037 9.90982ZM8.10098 15.7208L7.39432 16.4284C9.16887 18.2007 11.3634 19.0902 13.915 19.0902V18.0902V17.0902C11.8777 17.0902 10.1962 16.4001 8.80765 15.0133L8.10098 15.7208Z" fill="black" mask="url(#path-1-inside-1_805_728)"/>
</g>
<defs>
<filter id="filter0_d_805_728" x="0" y="0" width="36" height="36" filterUnits="userSpaceOnUse" color-interpolation-filters="sRGB">
<feFlood flood-opacity="0" result="BackgroundImageFix"/>
<feColorMatrix in="SourceAlpha" type="matrix" values="0 0 0 0 0 0 0 0 0 0 0 0 0 0 0 0 0 0 127 0" result="hardAlpha"/>
<feOffset dy="4"/>
<feGaussianBlur stdDeviation="2"/>
<feComposite in2="hardAlpha" operator="out"/>
<feColorMatrix type="matrix" values="0 0 0 0 0 0 0 0 0 0 0 0 0 0 0 0 0 0 0.25 0"/>
<feBlend mode="normal" in2="BackgroundImageFix" result="effect1_dropShadow_805_728"/>
<feBlend mode="normal" in="SourceGraphic" in2="effect1_dropShadow_805_728" result="shape"/>
</filter>
</defs>
</svg>
